<?xml version="1.0" encoding="utf-8"?>
<!-- Generator: Adobe Illustrator 21.0.0, SVG Export Plug-In . SVG Version: 6.00 Build 0)  -->
<svg version="1.1" id="Layer_1" xmlns="http://www.w3.org/2000/svg" xmlns:xlink="http://www.w3.org/1999/xlink" x="0px" y="0px"
	 viewBox="0 0 36 36" style="enable-background:new 0 0 36 36;" xml:space="preserve">
<style type="text/css">
	.st0{fill:none;}
	.st1{fill:#D39833;}
	.st2{fill:#FFFFFF;}
</style>
<path class="st0" d="M0,0h36v36H0V0z"/>
<path class="st1" d="M18,3C9.7,3,3,9.7,3,18s6.7,15,15,15s15-6.7,15-15S26.3,3,18,3z"/>
<path class="st2" d="M27.6,15.9c-1.2,0-2.1,1-2.1,2.1v3.2h-15V18c0-1.2-1-2.1-2.1-2.1s-2.1,1-2.1,2.1v5.3c0,1.2,1,2.1,2.1,2.1h19.2
	c1.2,0,2.1-1,2.1-2.1V18C29.8,16.8,28.8,15.9,27.6,15.9z M24.4,10.5H11.6c-1.2,0-2.1,1-2.1,2.1V15c1.2,0.4,2.1,1.6,2.1,3v2.2h12.8
	V18c0-1.4,0.9-2.6,2.1-3v-2.3C26.5,11.5,25.6,10.5,24.4,10.5z"/>
</svg>
