<svg version="1.1" id="Layer_1" xmlns="http://www.w3.org/2000/svg" xmlns:xlink="http://www.w3.org/1999/xlink" x="0px" y="0px"
	 viewBox="0 0 493 261" style="enable-background:new 0 0 493 261;" xml:space="preserve">
<style type="text/css">
	.st0{fill:#D39833;}
</style>
<g>
	<path class="st0" d="M96.8,165.3c1.7,0.6,3.6,0.9,5.7,0.9c2.1,0,4.1-0.2,6.1-0.7c2-0.5,3.8-1.6,5.4-3.4c1.6-1.8,2.9-3.2,3.9-4.3
		c0.9-1.1,2.1-3.5,3.5-7.3c1.7-4.4,3.8-10.6,6.3-18.5c6.6,6.1,10.5,10.7,11.7,13.8c-7.5,27.5-20.7,41.3-39.6,41.3
		c-8.9,0-20.2-5.8-34-17.4c-7.2,11.6-18.4,17.4-33.5,17.4c-6.7,0-12.8-2.3-18.2-6.8c-5.4-4.5-8.1-11-8.1-19.5
		c0-8.4,2.8-15.4,8.4-20.8c5.6-5.4,12.9-8.1,21.8-8.1c1.7,0,4.1,0.2,7.3,0.5l3.3-29.8c-6.9,2.2-17.5,5-31.9,8.4V93.6
		c11.7-2.7,23-5.6,33.8-8.9l4.7-38.2C56.7,20.3,69.9,7.3,93.2,7.3c9.2,0,16.6,2.5,22.2,7.6c5.5,5.1,8.3,12.2,8.3,21.5
		c0,22.2-14.3,40.1-42.9,53.7l-7,55.3l-0.2,2.3C85.1,158.1,92.8,163.9,96.8,165.3z M23.8,159.2c0,4.7,2.7,7,8,7
		c5.2,0,8.4-4.6,9.6-13.8c-3-1.2-5.7-1.9-8.3-1.9s-4.8,0.9-6.6,2.6C24.7,154.9,23.8,156.9,23.8,159.2z M106.1,38.2
		c0-6.6-2.7-9.8-8.2-9.8c-6.6,0-10.7,7.7-12.4,23.2l-2.3,18.5C98.5,61.1,106.1,50.4,106.1,38.2z"/>
	<path class="st0" d="M184,72.9c14.4,0,26.4,4.6,36,13.8c9.6,9.2,14.4,20.5,14.4,33.8c0,20.2-5.9,36.3-17.7,48.4
		c-11.8,12.1-26.1,18.2-42.8,18.2c-16.7,0-30-4.8-39.7-14.3c-9.8-9.5-14.7-21.3-14.7-35.4c0-19.7,6-35.3,18.1-46.9
		C149.8,78.8,165.2,72.9,184,72.9z M179.4,91.9c-7.4,0-13.6,4.2-18.6,12.7c-5,8.4-7.7,19.1-8.2,31.9c0,9.1,1.8,16.6,5.5,22.5
		c3.7,5.9,9.3,8.9,16.8,8.9c7.5,0,13.8-4.1,18.9-12.4c5.1-8.3,7.6-17.7,7.6-28.4c0-10.6-1.8-19.1-5.4-25.3
		C192.4,95.2,186.8,91.9,179.4,91.9z"/>
	<path class="st0" d="M305.9,72.9c14.4,0,26.4,4.6,36,13.8c9.6,9.2,14.4,20.5,14.4,33.8c0,20.2-5.9,36.3-17.7,48.4
		c-11.8,12.1-26.1,18.2-42.8,18.2c-16.7,0-30-4.8-39.7-14.3c-9.8-9.5-14.7-21.3-14.7-35.4c0-19.7,6-35.3,18.1-46.9
		C271.7,78.8,287.2,72.9,305.9,72.9z M301.4,91.9c-7.4,0-13.6,4.2-18.6,12.7c-5,8.4-7.7,19.1-8.2,31.9c0,9.1,1.8,16.6,5.5,22.5
		c3.7,5.9,9.3,8.9,16.8,8.9s13.8-4.1,18.9-12.4c5.1-8.3,7.6-17.7,7.6-28.4c0-10.6-1.8-19.1-5.4-25.3
		C314.3,95.2,308.8,91.9,301.4,91.9z"/>
	<path class="st0" d="M392.2,72.7c10.2,0,16.1,2.6,17.8,7.7c7.3-5.2,16.7-7.7,27.9-7.7s20.9,4.6,29.1,13.8
		c8.1,9.2,12.2,20,12.2,32.4c0,1.7-0.1,3.5-0.2,5.4c-1.7,20.5-8.6,36.1-20.6,46.8c-12,10.7-27.8,16.1-47.1,16.1
		c-4.4,0-9.1-0.5-14.3-1.6l-7.5,64.5h-30.7c10-86.1,16.7-144.6,20.2-175.4C382.1,73.3,386.6,72.7,392.2,72.7z M446.2,120.6
		c0-6.9-1.6-13-4.7-18.3c-3.1-5.3-8-8-14.5-8c-8.9,0-15.7,5.8-20.4,17.4c-3.1,23.1-4.9,36.6-5.4,40.3c-0.2,4.7,1.3,8.2,4.5,10.6
		c3.1,2.3,7,3.5,11.5,3.5c8,0,14.5-3.6,19.7-10.8C443,146.3,446.2,134.8,446.2,120.6z"/>
</g>
</svg>
